<svg xmlns="http://www.w3.org/2000/svg" xmlns:xlink="http://www.w3.org/1999/xlink" id="Calque_1" data-name="Calque 1" viewBox="900 0 620 400">
  <defs>
    <style>
      .cls-1 { fill: url(#Dégradé_sans_nom_254-13); }
      .cls-2 { fill: url(#Dégradé_sans_nom_207-6); }
      .cls-3 { fill: url(#Nouvelle_nuance_de_dégradé_2-5); }
      .cls-4 { fill: url(#Dégradé_sans_nom_207-5); }
      .cls-5 { fill: url(#Nouvelle_nuance_de_dégradé_2-6); }
      .cls-7 { fill: url(#Dégradé_sans_nom_207-9); }
      .cls-10 { fill: url(#Dégradé_sans_nom_207-11); }
      .cls-11 { fill: url(#Dégradé_sans_nom_254); }
      .cls-14 { fill: url(#Dégradé_sans_nom_254-12); }
      .cls-15 { fill: url(#Dégradé_sans_nom_254-5); }
      .cls-18 { fill: url(#Dégradé_sans_nom_254-9); }
      .cls-19 { fill: url(#Nouvelle_nuance_de_dégradé_2-4); }
      .cls-21 { fill: url(#Dégradé_sans_nom_207-12); }
      .cls-22 { fill: url(#Dégradé_sans_nom_207-7); }
      .cls-24 { fill: url(#Nouvelle_nuance_de_dégradé_2-8); }
      .cls-25 { fill: url(#Nouvelle_nuance_de_dégradé_2-10); }
      .cls-31 { fill: url(#Nouvelle_nuance_de_dégradé_2-11); }
      .cls-33 { fill: url(#Nouvelle_nuance_de_dégradé_2); }
      .cls-34 { fill: url(#Dégradé_sans_nom_254-10); }
      .cls-37 { fill: url(#Nouvelle_nuance_de_dégradé_2-17); }
      .cls-39 { fill: url(#Dégradé_sans_nom_207-16); }
      .cls-40 { fill: url(#Dégradé_sans_nom_254-3); }
      .cls-41 { fill: url(#Nouvelle_nuance_de_dégradé_2-3); }
      .cls-43 { fill: url(#Nouvelle_nuance_de_dégradé_1); }
      .cls-44 { fill: url(#Nouvelle_nuance_de_dégradé_2-12); }
      .cls-45 { fill: url(#Dégradé_sans_nom_207-2); }
      .cls-46 { fill: url(#Dégradé_sans_nom_254-6); }
      .cls-47 { fill: url(#Dégradé_sans_nom_254-4); }
      .cls-48 { fill: url(#Dégradé_sans_nom_207-3); }
      .cls-51 { fill: url(#Dégradé_sans_nom_254-2); }
      .cls-52 { fill: url(#Dégradé_sans_nom_207-4); }
      .cls-53 { fill: url(#Nouvelle_nuance_de_dégradé_2-2); }
      .cls-55 { fill: url(#Nouvelle_nuance_de_dégradé_2-15); }
      .cls-56 { fill: #1d71b8; }
      .cls-57 { fill: url(#Dégradé_sans_nom_207-13); }
      .cls-59 { fill: url(#Dégradé_sans_nom_254-11); }
      .cls-60 { fill: url(#Dégradé_sans_nom_254-7); }
      .cls-61 { fill: url(#Nouvelle_nuance_de_dégradé_2-16); }
      .cls-62 { fill: url(#Nouvelle_nuance_de_dégradé_2-14); }
      .cls-64 { fill: url(#Dégradé_sans_nom_207-8); }
      .cls-65 { fill: url(#Nouvelle_nuance_de_dégradé_2-7); }
      .cls-67 { fill: url(#Dégradé_sans_nom_207-10); }
      .cls-69 { fill: url(#Nouvelle_nuance_de_dégradé_2-9); }
      .cls-70 { fill: url(#Dégradé_sans_nom_207-14); }
      .cls-73 { fill: url(#Nouvelle_nuance_de_dégradé_2-13); }
      .cls-74 { fill: url(#Dégradé_sans_nom_207-15); }
      .cls-75 { fill: url(#Dégradé_sans_nom_207); }
      .cls-77 { fill: url(#Dégradé_sans_nom_254-8); }
    </style>

    <linearGradient id="Dégradé_sans_nom_207" data-name="Dégradé sans nom 207" x1="1658.24" y1="337.94" x2="1146.42" y2="-88.44" gradientUnits="userSpaceOnUse">
      <stop offset="0" stop-color="#2581c4"/>
      <stop offset="1" stop-color="#27348b"/>
    </linearGradient>
    <linearGradient id="Dégradé_sans_nom_207-2" data-name="Dégradé sans nom 207" x1="1632.83" y1="366.06" x2="1122.82" y2="-58.81" xlink:href="#Dégradé_sans_nom_207"/>
    <linearGradient id="Dégradé_sans_nom_254" data-name="Dégradé sans nom 254" x1="871.91" y1="291.84" x2="1325.87" y2="12.29" gradientUnits="userSpaceOnUse">
      <stop offset="0" stop-color="#008d36"/>
      <stop offset="1" stop-color="#27348b"/>
    </linearGradient>
    <linearGradient id="Dégradé_sans_nom_254-2" data-name="Dégradé sans nom 254" x1="933.37" y1="391.66" x2="1388.23" y2="111.55" xlink:href="#Dégradé_sans_nom_254"/>
    <linearGradient id="Dégradé_sans_nom_207-3" data-name="Dégradé sans nom 207" x1="1501.3" y1="522.75" x2="991.15" y2="97.76" xlink:href="#Dégradé_sans_nom_207"/>
    <linearGradient id="Nouvelle_nuance_de_dégradé_1" data-name="Nouvelle nuance de dégradé 1" x1="929.53" y1="385.49" x2="1384.83" y2="105.11" gradientUnits="userSpaceOnUse">
      <stop offset="0" stop-color="#008d36"/>
      <stop offset="1" stop-color="#27348b"/>
    </linearGradient>
    <linearGradient id="Dégradé_sans_nom_207-4" data-name="Dégradé sans nom 207" x1="1590.26" y1="418.44" x2="1078.31" y2="-8.05" xlink:href="#Dégradé_sans_nom_207"/>
    <linearGradient id="Dégradé_sans_nom_207-5" data-name="Dégradé sans nom 207" x1="1683.42" y1="308.73" x2="1170.25" y2="-118.77" xlink:href="#Dégradé_sans_nom_207"/>
    <linearGradient id="Dégradé_sans_nom_207-6" data-name="Dégradé sans nom 207" x1="1562.92" y1="450.65" x2="1051" y2="24.18" xlink:href="#Dégradé_sans_nom_207"/>
    <linearGradient id="Dégradé_sans_nom_207-7" data-name="Dégradé sans nom 207" x1="1575.32" y1="436.07" x2="1063.31" y2="9.53" xlink:href="#Dégradé_sans_nom_207"/>
    <linearGradient id="Dégradé_sans_nom_207-8" data-name="Dégradé sans nom 207" x1="1608.77" y1="396.73" x2="1096.68" y2="-29.87" xlink:href="#Dégradé_sans_nom_207"/>
    <linearGradient id="Dégradé_sans_nom_207-9" data-name="Dégradé sans nom 207" x1="1542.28" y1="474.26" x2="1031.65" y2="48.88" xlink:href="#Dégradé_sans_nom_207"/>
    <linearGradient id="Dégradé_sans_nom_254-3" data-name="Dégradé sans nom 254" x1="959.25" y1="433.73" x2="1414.86" y2="153.16" xlink:href="#Dégradé_sans_nom_254"/>
    <linearGradient id="Dégradé_sans_nom_207-10" data-name="Dégradé sans nom 207" x1="1577.11" y1="431.61" x2="1067.37" y2="6.97" xlink:href="#Dégradé_sans_nom_207"/>
    <linearGradient id="Dégradé_sans_nom_207-11" data-name="Dégradé sans nom 207" x1="1558.53" y1="454.5" x2="1048.18" y2="29.34" xlink:href="#Dégradé_sans_nom_207"/>
    <linearGradient id="Dégradé_sans_nom_207-12" data-name="Dégradé sans nom 207" x1="1606.81" y1="397.85" x2="1095.78" y2="-27.87" xlink:href="#Dégradé_sans_nom_207"/>
    <linearGradient id="Dégradé_sans_nom_254-4" data-name="Dégradé sans nom 254" x1="940.65" y1="404.54" x2="1397.32" y2="123.31" xlink:href="#Dégradé_sans_nom_254"/>
    <linearGradient id="Dégradé_sans_nom_254-5" data-name="Dégradé sans nom 254" x1="886.61" y1="317.33" x2="1343.25" y2="36.13" xlink:href="#Dégradé_sans_nom_254"/>
    <linearGradient id="Dégradé_sans_nom_254-6" data-name="Dégradé sans nom 254" x1="933.9" y1="393.73" x2="1390.55" y2="112.52" xlink:href="#Dégradé_sans_nom_254"/>
    <linearGradient id="Dégradé_sans_nom_207-13" data-name="Dégradé sans nom 207" x1="1593.32" y1="413.77" x2="1082.38" y2="-11.88" xlink:href="#Dégradé_sans_nom_207"/>
    <linearGradient id="Dégradé_sans_nom_254-7" data-name="Dégradé sans nom 254" x1="893.7" y1="328.68" x2="1350.35" y2="47.47" xlink:href="#Dégradé_sans_nom_254"/>
    <linearGradient id="Dégradé_sans_nom_254-8" data-name="Dégradé sans nom 254" x1="947.37" y1="415.32" x2="1404.08" y2="134.07" xlink:href="#Dégradé_sans_nom_254"/>
    <linearGradient id="Dégradé_sans_nom_254-9" data-name="Dégradé sans nom 254" x1="876.32" y1="300.78" x2="1332.95" y2="19.58" xlink:href="#Dégradé_sans_nom_254"/>
    <linearGradient id="Dégradé_sans_nom_207-14" data-name="Dégradé sans nom 207" x1="1514.32" y1="507.63" x2="1003.6" y2="82.17" xlink:href="#Dégradé_sans_nom_207"/>
    <linearGradient id="Dégradé_sans_nom_207-15" data-name="Dégradé sans nom 207" x1="1539.88" y1="477.18" x2="1029.15" y2="51.7" xlink:href="#Dégradé_sans_nom_207"/>
    <linearGradient id="Dégradé_sans_nom_254-10" data-name="Dégradé sans nom 254" x1="866.42" y1="284.88" x2="1323.03" y2="3.7" xlink:href="#Dégradé_sans_nom_254"/>
    <linearGradient id="Dégradé_sans_nom_254-11" data-name="Dégradé sans nom 254" x1="900.43" y1="339.41" x2="1357.01" y2="58.24" xlink:href="#Dégradé_sans_nom_254"/>
    <linearGradient id="Dégradé_sans_nom_254-12" data-name="Dégradé sans nom 254" x1="857.48" y1="270.52" x2="1314.09" y2="-10.66" xlink:href="#Dégradé_sans_nom_254"/>
    <linearGradient id="Dégradé_sans_nom_254-13" data-name="Dégradé sans nom 254" x1="848.33" y1="255.81" x2="1304.9" y2="-25.34" xlink:href="#Dégradé_sans_nom_254"/>
    <linearGradient id="Dégradé_sans_nom_207-16" data-name="Dégradé sans nom 207" x1="1642.54" y1="355.41" x2="1131.44" y2="-70.36" xlink:href="#Dégradé_sans_nom_207"/>
    <linearGradient id="Nouvelle_nuance_de_dégradé_2" data-name="Nouvelle nuance de dégradé 2" x1="1086.02" y1="149.57" x2="1202.08" y2="149.57" gradientUnits="userSpaceOnUse">
      <stop offset="0" stop-color="#2581c4"/>
      <stop offset="1" stop-color="#27348b"/>
    </linearGradient>
    <linearGradient id="Nouvelle_nuance_de_dégradé_2-2" data-name="Nouvelle nuance de dégradé 2" x1="1074.12" y1="137.28" x2="1085.99" y2="137.28" xlink:href="#Nouvelle_nuance_de_dégradé_2"/>
    <linearGradient id="Nouvelle_nuance_de_dégradé_2-3" data-name="Nouvelle nuance de dégradé 2" x1="1202.37" y1="137.02" x2="1213.84" y2="137.02" xlink:href="#Nouvelle_nuance_de_dégradé_2"/>
    <linearGradient id="Nouvelle_nuance_de_dégradé_2-4" data-name="Nouvelle nuance de dégradé 2" x1="1121.86" y1="164.19" x2="1134.46" y2="164.19" xlink:href="#Nouvelle_nuance_de_dégradé_2"/>
    <linearGradient id="Nouvelle_nuance_de_dégradé_2-5" data-name="Nouvelle nuance de dégradé 2" x1="1133.75" y1="160.76" x2="1140.97" y2="160.76" xlink:href="#Nouvelle_nuance_de_dégradé_2"/>
    <linearGradient id="Nouvelle_nuance_de_dégradé_2-6" data-name="Nouvelle nuance de dégradé 2" x1="1126.55" y1="150.44" x2="1136.44" y2="150.44" xlink:href="#Nouvelle_nuance_de_dégradé_2"/>
    <linearGradient id="Nouvelle_nuance_de_dégradé_2-7" data-name="Nouvelle nuance de dégradé 2" x1="1120.93" y1="154.28" x2="1129.57" y2="154.28" xlink:href="#Nouvelle_nuance_de_dégradé_2"/>
    <linearGradient id="Nouvelle_nuance_de_dégradé_2-8" data-name="Nouvelle nuance de dégradé 2" x1="1127.78" y1="134.61" x2="1138.68" y2="134.61" xlink:href="#Nouvelle_nuance_de_dégradé_2"/>
    <linearGradient id="Nouvelle_nuance_de_dégradé_2-9" data-name="Nouvelle nuance de dégradé 2" x1="1122.06" y1="143.94" x2="1130.76" y2="143.94" xlink:href="#Nouvelle_nuance_de_dégradé_2"/>
    <linearGradient id="Nouvelle_nuance_de_dégradé_2-10" data-name="Nouvelle nuance de dégradé 2" x1="1133.9" y1="171.26" x2="1138.17" y2="171.26" xlink:href="#Nouvelle_nuance_de_dégradé_2"/>
    <linearGradient id="Nouvelle_nuance_de_dégradé_2-11" data-name="Nouvelle nuance de dégradé 2" x1="1156.13" y1="164.16" x2="1168.56" y2="164.16" xlink:href="#Nouvelle_nuance_de_dégradé_2"/>
    <linearGradient id="Nouvelle_nuance_de_dégradé_2-12" data-name="Nouvelle nuance de dégradé 2" x1="1149.75" y1="160.81" x2="1156.79" y2="160.81" xlink:href="#Nouvelle_nuance_de_dégradé_2"/>
    <linearGradient id="Nouvelle_nuance_de_dégradé_2-13" data-name="Nouvelle nuance de dégradé 2" x1="1154.14" y1="150.47" x2="1164.09" y2="150.47" xlink:href="#Nouvelle_nuance_de_dégradé_2"/>
    <linearGradient id="Nouvelle_nuance_de_dégradé_2-14" data-name="Nouvelle nuance de dégradé 2" x1="1151.96" y1="134.54" x2="1162.66" y2="134.54" xlink:href="#Nouvelle_nuance_de_dégradé_2"/>
    <linearGradient id="Nouvelle_nuance_de_dégradé_2-15" data-name="Nouvelle nuance de dégradé 2" x1="1160.96" y1="154.31" x2="1169.68" y2="154.31" xlink:href="#Nouvelle_nuance_de_dégradé_2"/>
    <linearGradient id="Nouvelle_nuance_de_dégradé_2-16" data-name="Nouvelle nuance de dégradé 2" x1="1159.78" y1="143.84" x2="1168.61" y2="143.84" xlink:href="#Nouvelle_nuance_de_dégradé_2"/>
    <linearGradient id="Nouvelle_nuance_de_dégradé_2-17" data-name="Nouvelle nuance de dégradé 2" x1="1152.34" y1="171.25" x2="1156.72" y2="171.25" xlink:href="#Nouvelle_nuance_de_dégradé_2"/>
  </defs>

  <g id="bleu">
    <g>
      <path class="cls-75" d="M1301.61,0c3.69.65,5.87,2.27,10.55,2.41l7.93.24,5.84.26,7.68,3.69c6.5-2.03,10.33-5.26,17.05-3.83,2.64.56,4.89,1.71,7.61,1.7,4.28-.02,6.18-2.86,9.63-1.45,2.16.88,8.18,4.66,5.1,7.11-1.86,1.48-3.19,3.33-3.97,5.59-1.3,3.75-2.5,7.42-3.1,11.43-.17,1.17.95,2.87,1.73,3.69l3.59,3.74c1.72,1.79,1.72,4.18.69,6.4-2.58,5.58-5.12,8.49.22,14.21,3.9-.72,7.63.29,11.57.74,2.23.25,4.77-.48,7.09.67.68.34,2.64.63,3.1,0,4.09-5.6,3.44-10.26,7.78-10.29,6.24-.05,7.9,2.24,11.45,1.27,2.41-.66,3.66-5.14,10.52-4.87,3.38.13,7.81-1.48,11.31,1.92l4.69,4.54c1.49-.79,2.68-2.57,4.31-2.69,3.27-.23,6.51-.25,9.66.02,2.33.2,4.34,1.87,4.57,4.08.12,1.11-.85,2.46-1.77,3.09l-4.83,3.29c-2.02,1.37-2.84,3.14-2.6,5.61.16,1.7-.19,3.55-.2,5.25l-.06,7.32c-3.37-.44-5.58,1.32-6.89,4.14-.72,1.55-2.67,2.66-4.17,3.6-6.79,4.24-13.67,7.85-20.84,11.45l-17.19,8.64-5.77,2.99-3.91,2.04c-3.8,1.98-4.28,2.32-4.32,6.75l-.15,15.04c-.02,1.76-4.72,3.57-6.03,4.86-1.77,1.74-2.73,3.93-3.58,6.32l-7.74.1c-1.12.01-2.51.45-3.55.11-1.5-.49-2.11-1.81-2.12-3.25l-.13-23.57c-.02-2.9-.26-5.65-.08-8.54.07-1.2.23-2.41.21-3.63-.03-2.26.06-4.34.41-6.49l7.64-4,14.81-7.34,8.56-4.09c4.4-2.1,8.62-4.11,12.8-6.61,3.12-1.87,4.35-.86,7.22.1,4.79,1.61,9.44-.87,11.13-5.36,1.31-3.5.36-6.59-2.47-9.1-2.55-2.26-6.05-2.73-9.42-1.24-2.67,1.17-4.59,4.12-4.91,7.39-.21,2.22-1.4,4.18-3.51,5.2l-9.23,4.49-7.06,3.35-7.4,3.53-7.82,3.73-10.56,5.15c-1.16.57-2.74.59-3.81-.22l-12.48-9.4c-2.09-1.8-2.02-13.54-1.39-14.24l3.06-3.38c2.85-3.15,2.44-7.9-.28-11.1-1.32-1.56-3.09-2.34-5.14-2.49-4.4-.34-7.92,2.68-8.9,6.91-1.2,5.18,1.59,8.42,6.17,10.31l.1,5.62c.03,1.59.36,3.41.2,4.93-.21,1.92.42,2.65,1.74,3.71l13.06,10.46c1.99,1.59,3.35,3.24,2.97,6.07-.12.91.19,2.31.21,3.3l.22,10.75.1,24.37-.25,2.57c-.27,2.79-4.17,1.9-7.03,1.74l-5.08-.28-5.07-.28-4.79-.28-4.8-.28-4.49-.26c-2.17-.13-3.27-.96-4.05-2.88-.9-2.2-2.7-4.17-5.03-4.97-3.14-1.08-6.86-.39-9.32,1.82-2.24,2.02-2.48,5.59-4.54,7.62l-14.73-.14c-3.63-.03-7.17-.21-10.81-.07-1.23.05-2.35.41-3.56-.25-1.87-1.03-3.71-2.59-4.65-4.52v-28.25s12.4.07,12.4.07l4.21.29,3.15.25c1.07,2.54,2.44,5.03,4.99,6.44,6.39,3.53,12.05-.54,15.3-6.31,3.43-1.27,9.05,2.75,11.61,5.03,1.73,1.54,2.95,3.25,3.99,5.31,1.28,2.53,4.67,3.83,7.18,2.3,1.87-1.13,2.48-3.49,2.28-5.58-.22-2.34-2.42-3.95-4.81-3.62l-4.47.61c-.61-.5-1.36-1.04-1.89-1.56l-6.55-6.34c-.14-1.27-.58-2.61-.58-3.96l-.02-55.13c1.07-3.14,6.48-7.16,9.38-9.14,5.41,3.34,12.64,1.09,14.85-4.87,1.08-2.91.8-6.42-.77-9.02-1.85-3.06-5.32-4.44-8.8-4.44-2.83,0-5.4,1.1-7.12,3.35-2.35,3.07-2.96,7.05-2.09,10.89-2.5,2.7-4.98,4.95-7.78,7.25-.94.77-1.85,2.42-1.85,3.76l.1,25.19.26,21.21.25,10.17c.03,1.31.13,2.63-.99,3.63-.34.31-1.1.68-1.48.65s-1.08-.45-1.37-.76l-2.46-2.7c-2.37-2.6-5.93-3.77-9.32-2.75-3.38,1.02-5.47,3.68-7.05,6.7l-18.03.03c-1.32,0-2.73-.81-2.76-2.34-.08-4.4.03-8.76.09-13.18l.16-11.86c1.74-.96,3.64-1.06,5.61-1.2l3.94-.27,3.12-.22,2.27-.19c2.25-.19,4.41-.07,6.67-.04,1.19,3.62,4.18,6.02,8.03,6.34,4.9.42,9.33-3.55,8.84-9.3-.26-3.07-2.06-5.5-5-6.56-2.42-.88-5.46-.9-7.83.34-2.09,1.09-3.21,3.18-4.31,5.34l-18.25,2.16-3.1-.35-.16-19.89-.15-8.81c-.03-1.73,1.37-3.08,3.12-3.08,2.44,0,4.76.1,7.16.15l7.68.17c.84,2.19,2.54,3.7,4.84,4.22,2.74.62,5.91.02,7.95-2,1.45-1.43,1.62-3.67,1.69-5.58.12-3.42-1.94-6.06-5.09-7-4.47-1.34-8.69,1.21-9.73,5.59-1.41.02-2.57.09-3.8.18l-3.42.27-4.7.19c-1.35.05-4.03.24-5.21-.35-.91-.46-.34-14.36-.31-16.35l.27-15.75c.05-2.77,3.34-4.4,5.89-4.68,3.77-.42,7.4,3.88,14.1,1.38,2.06-.77,4.09-1.42,6.08-2.05h5.07Z"/>
      <path class="cls-45" d="M1516.12,215.63v1.33c-1.13,2.24-2.12,4.63-2.93,7.19-.51,1.63.02,3.78-.85,5.31l-4.39,7.7-.07,20.24c0,1.07-2.08,5.67-3.94,3.82-.94-.93-2.64-2.61-3.98-1.3-.44,2.86-.22,5.87.86,8.54,1.26,1.27,3.42,1.05,5.19,1l5.35,8.69c1.1,1.79.52,4.07-1.08,5.4l-5.04,4.18c-2.57,2.12-3.74,5.08-4.05,8.29-.64,6.47-4.91,9.14-10.27,12.32l-.61,5.24c-.2,1.72-2.88,4.56-.43,7.62.67.84,1.58,1.85,1.38,2.98-.44,2.42-4.28,7.15-6.76,7.24l-5.53.2c-1.22.04-2.43,1.15-3.53,1.77-2.18,1.23-5.14.8-6.68-1.31-1.67-2.29,0-6.19-1.65-12.56-1.04-4-4.17-7.09-8.47-7.3-3.97-.2-5.2,1.42-8.25-.46-2.46-1.51-3.92-4.05-4.32-6.86-.25-1.76-.84-3.17-2.13-4.35-4.57-4.2-7.08.74-11.35-1.61-4.01-2.2-8.11-3.8-12.44-5.28-5.66-1.93-14.3-8.52-18.99-12.43l-8.29-6.91c-1-.83-2.85-1.98-2.88-3.45l-.25-12.68c-.05-2.46-1.14-12.54,1.78-12.41,4.21.7,8.12,1.37,12.27,1.84,1.91.21,3.47,1.15,4.64,2.69l12.32,16.21c4.09,5.38,11.23,7.86,17.57,9.43,4.72,1.17,9.09,2.68,13.67,4.34l13.41,4.86c1.43.52,3.1,1.29,4.09,2.26.93,5.37,5.84,9.82,11.27,7.87,1.49-.53,3.21-1.43,4.27-2.7,2.8-3.35,2.18-8.5-1.11-11.19-4.25-3.49-10.21-1.64-13.1,2.33l-37.41-15.42c-2.2-.91-4.61-.81-6.5-2.29-3.95-3.09-10.09-12.86-13.11-17.43-.51-.78-.77-1.56-.05-2.32,2.07-2.17,4.31-4.05,7.11-5.38l14.83,4.15c4.7,1.31,9.14,2.67,13.74,4.27,8.95,3.12,12.87,2.97,21.86,4.28,2.43,1.02,3.8,3.52,6.26,4.39,2.89,1.01,6.57.13,9.09-1.43,3.84-2.38,3.83-10.17-.63-13.28s-9.66-.76-13.2,3.15c-1.31,1.44-2.08.84-4.28,1.25l-3.16-.24c-12.85-.98-25.56-4.85-37.66-8.97-1.73-.59-3.59-1.32-5.05-2.21-.41-1.66.18-3.76,1.58-4.75.8-.56,2.46-.17,3.44-.07,2.48.25,4.84.46,7.08,1.44,1.24.55,2.47.9,3.86.95,2.43.08,4.53-1.32,4.93-3.84.14-.88-.67-1.91-1.3-2.59-2.72-2.93-5.3-.64-9.31-.41-2.62.15-5.16.09-7.85.03-1.57-.04-2.25-4.97-1.26-6.34l3.27-.2,6.32-.26c5.64-.23,11.19-.19,16.88.02,5.99.21,11.81.23,17.78,0,4.28-.17,8.45-.31,12.67-.02l4.21.29c1.98.14,3.66.95,4.9,2.44,4.13,4.98,11.45,4.46,14.17,1.09,2.92-3.61,3.16-10.71-.11-13-5.01-3.5-11.09-1.62-14.57,2.97-.65.86-2.15,1.89-3.44,1.89l-61.26-.02c-4.38,0-7.95-3.91-11.02-6.58l2.19-2.04,7.98-7.7c1.09-1.05,2.07-1.96,3.1-3.09,1.64-1.79,3.36-3.71,5.68-4.69.72-.3,2.35-.37,3.2-.39l7.52-.17c4.34-.1,8.5-.92,12.83-1.48,1.91-.25,3.5,1.53,4.84,2.55,3.92,2.97,9.21,2.75,12.47-.77,3.05-3.29,3.33-8.2.26-11.49-2.26-2.42-5.56-2.95-8.75-2.58-2.84.34-4.81,1.89-5.97,4.48-.76,1.69-2.37,3.15-4.38,3.18l-10.89.16-4.25.21-5.15.42c-2.17.18-4.2.84-5.73,2.51l-2.38,2.61c-1.01,1.1-2,2.07-3.1,3.08l-3.96,3.61-3.66,3.35-3.83,3.49c-1.46,1.34-2.75,2.92-4.6,3.83s-8.3-1.03-14.94,2.22c-.33.16-1.11.33-1.42.22s-.75-.82-.76-1.19l-.23-8.68-.23-17.4c-.02-1.77.16-3.21,1.57-4.51,1.33-1.22,1.56-3.19,1.27-5-.31-1.96-1.91-3.38-2.52-5.19s-.08-4.02-.05-5.86l.15-8.45c.79-.77,2.06-1.5,3.15-1.59,1.65-.14,3.01.94,4.1,2.13,4.2,4.6,7.91,9.38,11.8,14.23,1.5,1.88,3.11,3.38,4.86,5.06,5.04-2.1,7.08-4.01,10.47-7.88,1.72-1.96,3.63-3.92,6.29-4.65,4.32-1.18,8.44-2.46,12.71-3.9,1.32-.45,2.91.32,3.97,1.09,3.99,2.85,9.37,2.21,12.52-1.48,2.14-2.51,2.2-8.33-1.11-10.94-3.6-2.83-8.87-3.11-12.16.3-2.63,2.73-1.6,7.58-5.05,8.14-5.39.88-10.7,1.75-15.98,3.45-1.08.35-2.52,1.53-3.17,2.31l-2.62,3.11c-1.36,1.62-2.77,3.15-4.66,4.12l-2.89-2.69c-1.14-1.06-2.17-2.1-3.25-3.23l-3.68-3.87-4.51-5.07c-.76-.86-1.58-1.92-2.21-2.85l1.54-8.39,18.12-4.15,20.02-4.76,25.28-6.75c2.17-.58,3.81-.31,5.75.63,1.49.73,3.45-.33,4.98-.17,3.68.39,5.2,4.27,4.18,7.56-1.13,3.62-1.65,5.72,1.57,8.58l5.18,4.59c2.61,2.32,3.3,11.89-.97,14.01-2.47-1.44-2.35-3.32-4.21-5.22-.94-.96-2.54-.12-3.25.59-.8.8-.78,2.23,0,3.2,3.84,4.76,7.76,4.98,9.77,9.86,2.91,7.04,1.5,10.48,4.49,15.92,1.98,3.61,5.56,1,7.63,3.09,1.61,1.64-1.95,4,1.22,7.46,1.36,1.48,2.82,2.95,4.34,4.31,8.76,7.79,4.22,9.3,10.5,12.57.61.42,1.12,1.74,1.51,2.39Z"/>
      <path class="cls-11" d="M961.66,176.22v-27.09c0-6.77.1-13.63.39-20.58l.18-4.29c.32-7.55,7.24-14.51,14.65-15.04l2.85-.2,8.31-.24c6.59-.19,13.1-.09,19.72.02l16.03.27c3.56.06,7.01.19,10.57.06,1.84-.07,3.62-.7,5.34.5.99.69,1.94,2.69,1.61,3.79-.72,2.38-2.84,2.47-4.67,2.33-3.57-.28-7.01-.12-10.55.02-6.21.24-12.08.03-18.41,0l-25.07-.14c-.55,0-2.04.68-2.04,1.21v208.15c0,.72.23,1.36.39,2.03,3.44.03,6.75-.05,10.19.15,2.81.16,5.44.16,8.34.14,1.07,0,2.85.35,2.99,1.8.18,1.81-1.87,4.04-3.89,4.04l-24.21.02c-1.05,0-2.26-1.14-2.26-2.3v-150.91s-3.14-.34-3.14-.34c-3.58-.39-4.15,1.2-7.3-3.39Z"/>
      <path class="cls-51" d="M1067.3,220.58c-3.65-3.67-6.3-7.63-9.16-11.78-3.68-6.17-7.22-12.17-9.96-18.88-3.7-9.07-6.08-18.48-7.27-28.19-.23-1.84-.04-3.67-.15-5.49-.63-10.05.13-18.87,2.89-28.71,4.37-15.53,12.29-29.8,23.13-41.79,8.05-8.91,17.87-16.22,28.43-21.83s18.82-8.72,30.18-10.63c3.36-.57,6.52-1.17,9.91-1.34l3.44-.17c9.68-.49,20.31.53,29.76,3.09,13.99,3.79,27.12,10.2,38.58,18.95,20.35,15.53,33.89,37.97,38.13,63.06.12.7.7,1.36,1.34,1.59.14-2.58.21-4.91-.03-7.34-.28-2.75.09-5.31-.41-8.14V2.35c2.1-2.06,5.35-1.84,7.32.31v420.05c-1.88,2.12-5.38,2.04-7.33.1v-237.53c0-1.16,1.35-2.65-.05-5.06-.23-.16-.34-.22-.35-.23-.01-.02-.21.34-.26.58-1.46,7-4.4,14.5-7.81,21.01-5.7,10.9-12.74,20.67-21.98,28.83-16.39,14.47-36.95,24.42-58.84,25.73l-5.7.34c-2.12.13-4.09.11-6.21,0l-4.44-.22c-8.87-.43-17.47-2.13-25.9-4.99l-8.02-2.72c-.85.08-1.7,1.05-2.12,1.77l-10.27,17.72c-.95,1.65-2.49,3.05-4.27,3.57-3.7-1.6-6.93-3.48-10.28-5.55l-12.14-7.51c-1.51-.94-2.78-1.96-4.29-3.09,1.87-3.51,3.84-6.63,6.04-9.89l9.29-13.8-11.17-11.21ZM1234.29,154.26c0-48.9-40.01-88.55-89.37-88.55s-89.37,39.64-89.37,88.55,40.01,88.55,89.37,88.55,89.37-39.64,89.37-88.55Z"/>
      <path class="cls-48" d="M1281.25,359.48c1.87,1.01,3.56,2.31,5.26,3.4,2.04,1.31,2.42,2.97,1.96,5.25-.48,2.4-.42,4.88-.23,7.3.21,2.75.18,5.49.08,8.28-.2,5.65-5.09,10.16.03,14.36l.05,11.87c0,.56.76,1.39,1.23,1.42s1.52-.68,1.52-1.19l.08-12.56c4.75-3.21,1.31-6.21.91-13.41-.18-3.29-.19-6.59.03-9.86.4-6.03-.31-6.75-.13-12.77,1.03-1.7.08-5.98-2.38-6.34-6.41-.71-12.78,0-19.34-.31l.02-31.48c0-1.58.43-3.08.78-4.73,5.73,4.12,10.72,8.3,15.96,12.65l13.2,10.94c1.49,1.23,2.96,2.51,4.11,4.11l.17,15.39.14,23.62c3.45,4.55,12.29,6.1,17.59,8.8l.61,3.64c.55,3.31,2.88,6.29,6.23,7.15,3.74.96,7.57-1.04,9.36-4.19s1.49-7.55-1.31-10.11c-4.26-3.9-9.59-3.04-13.71.73l-11.99-5.5c-1.67-.76-3.04-2.6-3.04-4.63l-.07-37.68c-1.29-1.28-2.44-2.32-3.67-3.48l-4.21-3.96-24.82-20.6c-1.06-.88-2.07-1.69-2.98-2.67l-2.37-2.53v-16.81c0-.29.36-.92.57-1.06.26-.17,1.04.04,1.28.26,4.35,4,8.61,7.8,13.5,11.14.7.48,2.86.25,2.85-.71,0-1.32-1.29-2.82-2.36-3.66l-11.95-9.37c-2.97-2.33,6.89-7.42-.56-17.4,3.15-3.42,6.55-6.34,10.08-9.28.82-.68,1.63-1.38,2.39-2.1l3.14-2.98c2.21,1.94,6.41,2.35,7.17,4.1l.23,11.57.22,27.74.26,4.52.3,3.19,3.46,3.6c.95.99,1.83,1.86,2.83,2.8l4.46,4.22,2.38,2.13,10.78,9.16c2.17,1.85,4.06,3.96,6.12,5.96l.21,4.79.28,8.93.2,12.62c.03,1.85,1,3.38,2.52,4.24l8.78,4.96,4.26,2.24c2.4,1.26,4.82,2.83,6.27,5.21l5.33,8.71c4.34,7.09-4.68,7.38-.58,15.55l-3.6,8.32,1.44,4.66c-3.87,2.7-8.64,2.69-12.8.43l-5.75-.08c-3.47-2.06-6.74-4.16-10.37-5.89-1.65-.79-3.41-1.4-4.8-2.54-2.57-2.11-.48-5.94-3-8.15-3.12-2.73-8.86-3.63-11.85-.52-3.55,3.69-.63,7.26,1.18,10.17,1.37,2.2-1.31,6.8-5.48,6.85l-9.05.11c-.87,4.11-3.92,6.67-7.97,7.34-2.96.49-6.11,0-8.48-2.06-1.64-1.42-1.62-4.56-1.3-6.32,1.37-7.56-3.7-8.12-1.52-12.69,1.2-2.51,1.32-6.33.05-8.94-.62-1.27-1.39-2.94-1.39-4.48v-27.31c0-1.08.22-2.51.46-3.5.52-2.17,9.57-1.26,10.72-.64Z"/>
      <path class="cls-43" d="M1027.83,371.01c-3.28.47-6.44-.11-9.43-1.33-7.08-2.89-13.1-7.44-17.58-13.56-2.11-2.89-2.86-6.07-1.62-9.52,1.07-2.97,2.7-5.68,4.59-8.27,2.59-3.56,4.87-6.99,7.25-10.74l26.15-41.31,12.49-19.46,2.18-3.18c2.37-3.45,7.42-2.91,9.73-1.49l20.84,12.79c2.27,1.39,4.21,2.97,5.36,5.43-.92,1.86-1.68,3.54-2.76,5.3l-39.44,64.14-9.98,15.8c-1.81,2.86-4.08,4.87-7.77,5.4Z"/>
      <path class="cls-52" d="M1368.11,223.83l-9.71-.26-6.3-.26-3.09-.18c-1.84-.11-3.01-.98-3.61-2.62-1.14-3.15-4.04-5.47-7.4-5.76-3.16-.28-6.25.61-8.24,3.05-2.85,3.5-2.51,7.51-3.52,8.24l-10.91,7.9c-4.24,3.07-8.28,5.93-12.37,9.26l-6.72-3.33v-27.84c5.15-2.87,7.66-8.76,4.81-14.04-.39-.98-.38-2.16.35-3.02l14.62-17.31c1.2-1.42,2.48-3.02,4.35-3.48,2.58-.64,5.17.18,7.76.26l6.89.22,6.03.24,4.53.26,5.07.28,5.64.29,5.09.26,5.91.3,5.36.27c1.47.07,3.01.26,4.47.19,4.3-.21,4.64,2.35,7.91,4.64l-.13,28.44c-.02,3.89-.2,7.44-.1,11.34.03,1.03.29,3.07-1.05,3.39-3.41.82-6.86-.34-10.3-.5l-5.35-.25Z"/>
      <path class="cls-4" d="M1464.81,94.67c2.93,1.67,7.42,3.08,10.01.45,2.55-2.58,2.38-6.9-.24-9.22-1.57-1.39-3.65-1.87-5.61-1.34-4.9,1.34-3.01,4.93-7.63,7.31l-44.78,23.07c-2.33,1.2-2.37,2.88-2.35,5.28l.13,15.08-12.92,3.29c-4.13,1.05-2.34-3.25-8.86-6.41l-2.71-1.31-.16-10.09c-.04-2.57-.19-4.98-.1-7.59,1.05-1.18,2.53-2.13,3.94-2.84l10.06-5.11,9.67-4.93,5.21-2.72,24.25-12.83c3.07,1.77,7.73,1.68,9.36-.9,2.38-3.76-1.79-6.06-.23-15.14l.94-5.49c1.97-.72,4.32,2.33,6.3-.5,1.53-2.18,4.62-3.34,6.98-1.69,7.24,5.06,4.14,14.79,15.93,13.76,2.66,3.81,4.1,8.16,4.38,12.73l.26,4.22c.25,4.03.69,7.81,2.01,11.65,1.87,5.43-4,10.11-8.92,10.51-4.08.34-5.91-4.92-8.24-2.25-3.31,3.8-6.44,2.4-7.67,7.4-.53,2.15-1.82,3.39-3.92,4.02-6.59,1.96-13.03,3.69-19.77,5.24-7.19,1.65-13.93,3.56-21.13,5.71-1.34-3.05-1.26-4.96-1.06-8.09l.28-4.43c.13-2.11.45-3.69,2.48-4.7l16.26-8.13,18.49-9.3,9.36-4.71Z"/>
      <path class="cls-2" d="M1387.04,301.87c2.4,2.03.82,3.6,1.94,6.44l1.44,3.65c.72,1.82.16,4.08-1.71,5.07l-5.12,2.72c-1.12.59-.92,2.35-.46,3.36.8,1.75,1.39,3.9.15,5.47s-3.11,3.1-5.28,3.15c-1.48.03-2.98-.88-4.19-1.63-3.23-1.99-6.37-3.58-10.03-4.65-1.96-.57-1.01-4.51-1.36-6.2-.75-3.61-4.67-5.29-8.01-4.16-.81.27-2.49.43-3.07-.14l-9.52-9.33c-.69-.67-4.5-3.97-5.05-4.71-1.1-1.48-2.35-12.13.18-13.12.93-.37,2.08.07,3.02.09l8.71.14,4.82.26c.95,1.27,1.88,2.95,3.38,3.83,2.05,1.2,4.8,1.2,6.85-.18l12.91-8.69c3.41-2.29,6.4-4.77,9.96-6.91,1.05-.63,3.33.37,4.22,1.15l16.51,14.36c2.79,2.43,5.49,4.79,9.05,6.09,4.91,1.79,9.04,1.67,15.58,4.14.87.33,1.6,1.07,2.08,1.84,3.29,5.28,5.87,4.54,8.24,5.84,1.99,1.09,3.63,2.7,5.43,4.08,2.3,1.77.16,5.45-1,7.82-.82,1.68-1.46,3.5-2.57,4.98-1.18,1.57-3.02,2.91-4.97,3-4.5.22-4.62-6.35-13.54-6.01-1.99.08-3.92.09-5.92.34-1.8.22-3.6.5-5.28-.04-2.09-.67-.97-2.9-2.44-7.11-1.65-4.71-6.21-3.3-7.54-8.75-1.77-7.24-7.86-4.85-12.42-10.59-1.05-1.32-2.7-2.06-4.44-1.69s-3.09,1.44-4.12,3.06l3.57,3.02Z"/>
      <path class="cls-22" d="M1335.43,263.1c1.24-1.12,3.2-.89,4.8-.62,3.61.62,7.12-.16,10.02-2.33l4.2-3.13c.63-.47,1.82-.86,2.5-.47,2.48,1.42,5.18,1.88,8,.81,4.66-1.76,7.47-7.96,4.38-13.08-1.22-2.01-3.58-3.44-6.28-3.79-5.23-.69-9.28,3.07-9.42,8.24-.11,4.03-1.37,6.4-5.44,7.71-3.05.98-5.09.82-8.24,1.04l-3.42.24h-26.08c-1.35-.01-3.59-.9-4.27-1.84-1.72-2.37-1.13-6.87-.58-9.52l22.87-16.58c3.93,2.41,7.61,4.68,12.26,2.45,2.46-1.18,4.29-3.46,5.66-5.7l3.71.33,3.39.27,3.38.27,3.94.3,3.67.27,3.95.28,3.66.27,12.43,1.08v41.52c-.01,1.26-6.22,5.49-7.48,6.34l-10.61,7.21-2.84-1.92c-2.49-1.68-5.28-1.18-7.59.38-1.73,1.18-4.1,1.28-6.14,1.18l-3.79-.18-10.28-.13-.21-6.28-.13-14.63Z"/>
      <path class="cls-64" d="M1372.93,172.94l-3.97-.26-4.77-.31-4.23-.28-3.97-.26-4.49-.3-3.97-.26-4.49-.3-3.97-.26-4.49-.29-4.56-.25-12.89-.1-10.1,11.83-8.97,11.14c-.16.2-.91.43-1.17.47-.31.05-.66-.69-.66-1.16v-47.47s7.36-.82,7.36-.82c1.14-.13,3.04.09,3.8.93,2.53,2.79,5.91,3.92,9.74,3.23,2.79-.5,4.85-2.58,6.4-5.17,2.42-.18,4.86-.03,7.36.13l4.23.27,4.79.29,4.51.27,4.79.29,4.51.28,4.51.28,4.51.28,4.51.28,3.76.23c1.83.11,3.57.42,5.37.81,1.41,3.14,3.79,5.16,6.69,6.83,1.12.65,1.98,1.42,1.97,2.82-.01,1.47,0,2.97-.12,4.41s-.19,2.83,0,4.28c.38,2.75-1.21,5.05-3.03,6.9-1.04,1.06-2.08,1.58-3.65,1.5l-5.34-.27Z"/>
      <path class="cls-7" d="M1352.61,322.58c1.28,2.05,4.07,2,5.4,3.92.34.5-.24,1.94-.8,2.27-5.12,3.08-8.42,1.37-11.01,5.58l-1.44,2.34c-1.23.2-2.84.04-4.23-.09l-3.42-.3c-1.37-.12-3.13-.03-4.41-.7l-28.33-25.22c-1.15-1.02-2.8-2.6-2.87-4.03l-.31-6.01-.26-18.41-.14-21.63c.55-1.08,2.1-2.24,3.38-2.33l6.65,4.17,5.31.24c2.87.13,5.68.19,8.58.05,1.87-.09,4.57-.71,6.03-.37.16,1.24.36,2.25.39,3.31l.24,10.97.18,22.99c.02,3.11,2.02,5.12,4.18,7.06,4.58,4.13,9.2,7.92,14.13,11.66,1.41,1.07,1.9,3.1,2.77,4.51Z"/>
      <path class="cls-40" d="M1064.78,328.63c1.06-1.31,2.02-.49,3.28-.49h112.32s0-68.9,0-68.9c0-1.24-.24-2,1.37-2.44,1.01-.67,2.45-.96,3.7-.39,1.3.33,2.55,1.27,2.55,2.85l-.02,73.91h-123.63c-.21-1.52.05-3.13.43-4.54Z"/>
      <path class="cls-67" d="M1290.93,194.63c-4.46,1.98-4.86,4.78-6.31,9.26-.62.19-1.66.25-2.46.31l-3.96.31-3.93.31c-1.25.1-4.22.33-4.35-1.63-.33-5.19-.07-10.4-.02-15.64l.18-18.59c.01-1.16.23-2.25.34-3.59,2.4-.07,4.7.05,7.07.1l11.38.22,3.07.26.3,4.13.03,22.26c0,.78-.76,2.02-1.35,2.29Z"/>
      <path class="cls-10" d="M1287.66,246.28l-15.56-10.05c-1.12-.72-2.32-2.33-2.32-3.6l-.03-22.88c.33-1.62,1.71-2.52,3.32-2.65l11.9-.89c1.64,2.83,4.21,4.66,7.15,6.3.73.77.58,2.4.2,3.46v22.22c.18.8.35,2.04.3,2.81-1.54,1.92-3.11,3.56-4.95,5.29Z"/>
      <path class="cls-21" d="M1390.06,230.04c2.31-1.43,5.38-1.17,7.03,1.51,1.34,2.18,3.31,2.87,5.71,2.86,3.2,0,6.29-1.52,6.76-4.81.35-2.46-.33-4.47-1.94-6.09s-3.94-2.16-6.44-1.63c-2.23.48-3.72,2.31-5.61,3.62-1.35.93-4.08.59-5.31-.49-1.71-1.5-.47-6.75,2.53-9.27,7.11-5.99,17.2-3.8,22.71,2.63,1.86,2.17,3.61,4.5,4.1,7.36,1.01,5.95-2.65,11.61-7.3,15.2-4.35,3.35-8.01,3.3-13.14,2.34-6.33-1.18-10.42-6.89-9.1-13.22Z"/>
      <path class="cls-47" d="M1108.23,291.57c-1.89.33-3.37.22-5.06.36-2.74.22-6.8.11-9.2-1.01-1.08-.51-1.97-1.77-1.74-2.9.43-2.13,2.45-2.96,4.45-2.9,1.58.05,3.12-.1,4.66-.13l11.88-.28,49.95-.14c.78,0,1.45.74,1.98,1.19,1.4,1.19,1.98,3.4.31,4.74-2.68,2.14-8.77,1.18-12.02,1.17l-45.2-.09Z"/>
      <path class="cls-15" d="M1059.78,232.97l-3.76.19h-57.63c-1.9,0-3.32-2.52-3.11-4.05.23-1.64,1.87-3.15,3.66-3.15h61c1.07,0,1.92,1.1,2.57,1.75.9.9.8,2.43.25,3.53-.4.81-1.72,1.69-2.98,1.75Z"/>
      <path class="cls-46" d="M1157.07,266.04c2.17-.12,4.25-.39,6.22.01,1.68.34,3.54,1.41,3.71,3.23.14,1.48-1.5,3.55-3.28,3.55l-55.45.03c-2.33,0-4.13-1.88-3.58-4.05.93-3.69,5.36-3.39,8.55-3.12.79.07,1.55-.05,2.37-.05l22.63.07,8.74.31c3.33.12,6.62.21,10.09.02Z"/>
      <path class="cls-57" d="M1292.16,152.53c.08,3.34.16,6.42.14,9.73h-21.85s-.29-3.5-.29-3.5c-.3-3.56-.22-12.82.32-16.56.24-1.7,4.05,2.54,9.24,2.65l8.04.18,4.24.25.17,7.24Z"/>
      <path class="cls-60" d="M1050.95,250.36c-.24,1.03-1.44,1.82-2.54,1.82l-49.62-.07c-2.1,0-3.84-2.3-3.46-3.98s2.34-3.15,4.21-3.14l26.23.08,14.39.27c2.45.05,4.89.07,7.21.33s4.14,2.25,3.57,4.69Z"/>
      <path class="cls-77" d="M1167.07,308.04h-86.69c-.06-2.19,1.5-4.45,3.99-4.45h78.33c2.46.66,4.17,2.01,4.37,4.45Z"/>
      <path class="cls-18" d="M1048.14,213.64l-50.62-.03c-1.56,0-2.61-2.58-2.12-3.6.57-1.2,1.59-2.71,2.97-2.72l26.03-.21,21.25-.12c1.45,0,2.75,1.21,3.62,2.36.92,1.23.12,3.01-1.12,4.31Z"/>
      <path class="cls-70" d="M1358.79,387.05c-3.98-1.56-.91-5.7-3.17-9.07-.88-1.32-2.45-1.95-3.83-2.65l-13.74-7.05c-5.74-2.94-7.26-5.5-6.32-12.47l.22-1.61,6.71,6.49c2.7,2.61,7.3,2.23,10.66,1.03,1.55.16,2.79,1.37,3.66,2.66,5.26,7.75,11.01,5.87,10.65,13.77-.62,3.37-2.3,6.28-4.83,8.91Z"/>
      <path class="cls-74" d="M1273.17,268c-.52.54-1.28,1.46-1.97,1.47-.32,0-.81-.81-.83-1.16l-.21-6.53-.12-21.51c0-.22.25-.91.45-.86s.66.21.83.32l12.67,8.13c3.15,2.02,3.75,6.57.94,9.09l-6.19,5.56c-1.94,1.74-3.68,3.52-5.58,5.5Z"/>
      <path class="cls-34" d="M1037.76,194.67l-37.72-.03c-1.57,0-3.2-1.47-3.65-2.74-.4-1.14.18-3.87,1.7-3.88l39.66-.09c2.02,0,3.5,1.38,3.62,3.29s-1.58,3.45-3.61,3.45Z"/>
      <path class="cls-59" d="M1038.55,268.67c-.82,3.35-6.02,2.09-9.41,2.07l-32.24-.17c-1.2-.47-2.07-2.49-1.52-3.77.52-1.21,2.04-2.85,3.57-2.85l35.61-.02c1.69,0,4.63,2.14,3.99,4.73Z"/>
      <path class="cls-14" d="M1033.47,169.91c1.23.09,2.65,1.83,2.75,2.98.12,1.3-1.05,2.72-2.23,3.31l-34.65-.06c-1.96,0-3.75-2.13-3.51-3.72.71-4.68,8.28-3.36,11.36-3.31l16.6.25,5.51.25,4.16.3Z"/>
      <path class="cls-1" d="M1031.52,156.66l-31.23.02c-1.61,0-3.28-.77-4.1-2.1s-.17-3.6,1.26-4.28c1.79-.86,3.77-.72,5.71-.33l27.49.04c1.61,0,2.58,1.81,2.81,3s-.57,3.18-1.94,3.65Z"/>
      <ellipse class="cls-39" cx="1387.6" cy="143.04" rx="7.19" ry="7.12"/>
      <path class="cls-33" d="M1154.82,208.5c-3.86-7.58-3.29-6.01-2.91-14.08.13-2.81.07-5.36-.73-7.91l-.24,8.27c-.08,2.83-.27,5.66-.02,8.53.15,1.77,1.48,3.24,2.18,5.28l-15.57.03c2.4-5.83,2.13-2.36,2.49-8.94.14-2.6.1-5.15-.05-7.68l-.3-5.25c-.64,1.22-.71,2.55-.73,4-.06,3.73.24,7.4-.15,11.1-.25,2.33-1.96,4.49-2.67,6.7l-3.13.25-7.55.17-4.77.27c-2.71.15-4.65-.53-6.87-1.96-8.41-5.42-16.55-10.87-24.35-17.21-1.74-1.41-3.39-4.32-3.39-6.7l-.05-53.45c0-2.33,1.56-4.45,2.72-6.24,6.67-10.26,14.74-20.39,25.19-26.97,2.97-1.87,6.14-2.99,9.5-4.03,15-4.66,36.87-3.78,50.84,4.17,3.64,2.07,6.66,4.86,9.61,7.76l1.58,1.56c6.12,6.03,11.38,12.72,15.6,20.23.41.73,1.02,1.86,1.02,2.63l-.1,15.21-.23,6.54c-1.13-.94-2.42-.53-3.6-.68-2.34-.29-4.44-1.44-6.85-2.04l-4.65,1.26c-.2.06-.53.43-.58.59-.74,2.52,3.81-1.29,6.84-.05l7.2,2.96,1.7-.81-.14,32.8c0,2.25-2.29,4.72-4.06,5.98l-17.76,12.54-6.4,4.57c-3.19,2.28-5.9,1.07-8.01,1.05l-8.46-.08c-.61,0-1.48-.23-2.17-.36ZM1139.39,117c.45-3.67.68-10.4.17-13.23-.44-2.45-2.62-4.33-2.79-6.87-.03-.5-.17-1.44-.54-1.55s-1.18.06-1.5.29c-.27.2-.31,1.07-.14,1.37l2.29,3.89c4.07,6.9-.38,10.65,2.51,16.1ZM1152.24,112.41l-.24-4.6c-.35-6.61,4.92-9.78,4.06-11.9-.21-.51-1.96-.65-2.04-.14.24,3.05-2.69,5.91-3.02,8.25-.45,3.27-.19,9.27.27,12.87,1.05-1.37,1.06-2.85.97-4.49ZM1134.48,115.91c0,.4.7,1,1.07.93.24-11.59-.13-11.15-5.33-20.7-4.45.25,4.17,6.01,4.22,12.73l.04,7.03ZM1156.25,110.02c.16-6.16,3.13-8.13,5.57-13.12-.32-.45-1.5-.73-1.69-.35-1.05,2.12-2.07,4.12-3.2,6.12-1.2,2.12-1.67,4.21-1.8,6.66,0,.11-.44,9.38.59,7.66.07-.12.37-.55.38-.75l.16-6.22ZM1164.19,102.76l-5.69,5.66-.14,1.86c-.17,2.24-.67,4.36.31,6.6l1.35-2.47c1.64-1.64,4.18-2.39,5.69-4.16,2.74-3.22,4.87-6.8,7.41-10.21-.45-.69-.98-1.11-1.73-1.43l-1.46,3.05c-2.22,4.66-4.73,8.72-9.85,10.72-1.08-1.49-.5-3.29.76-4.47l3.16-2.97c1.15-1.08,2.17-2.26,2.6-3.9.1-.39-.64-1.07-1.03-1.09-.34-.02-1.37.06-1.41.39-.08.63,0,1.7.04,2.42ZM1126.53,100.3c-.72-.07-1.73-.07-2.3.18-.37.16-.1,1.34.14,1.7,3.38,5.17,8.01,5.48,6.39,10.35-5.51-2.66-6.8-4.89-9.69-9.92-.66-1.15-1.03-2.25-1.54-3.56-.42-.44-1.8.25-1.99,1.02l7.55,10.61c1.07,1.15,4.95,2.7,5.41,3.48l1.65,2.83c1.08-10.04-.02-7.95-5.65-14.25l.03-2.43ZM1107.61,139.54c2.53-3.68-3.94-3.22.06-13,1.5.88,1.88,2.54,1.69,4.19l-.49,4.32c2.49-1.02,3.84-2.59,5.25-4.41l6.47-8.36c.71-.92,1.3-1.84.69-2.95l-10.01,12.71c-2.69-8.1.54-5.33,1.87-9.32,2.02-6.04,2.77-4.42,2.38-11.73-.7-.31-1.91.05-2.24.76.93,1.89,1.28,3.97.44,5.96l-2.68,6.3-4.89,2.4-1.1,5.01c-.04.16-.51.61-.59.41-1.46-3.85-.17-7.89-4.54-9.97-.48-.23-1.74.47-1.71.98.06,1.1,1.23,1.84,2.16,1.93,1.33.13,1.8.83,1.91,2.08l.28,3.29c.15,1.76,1,3.07,2.23,4.29,1.41,1.4,2.04,3.24,2.83,5.11ZM1183.15,139.52c.74-1.72,1.23-3.64,2.55-4.94s2.08-2.39,2.33-4.2l.68-4.87,2.6-1.13c.53-.23,1.1-1.39,1.17-1.94-.96-.85-2.13-.5-3,.23-3.27,2.74-1.78,6.76-3.55,9.7l-1.37-5.91-4.84-2.38-2.75-6.45c-.87-2.04-.61-4,.51-5.85-.56-.7-1.51-1.07-2.4-.83-.19,6.53-.03,4.66,1.58,9.43.81,2.39,1.9,4.4,3.82,6.08,0,1.71-.39,3.55-1.09,5.27-.78-.74-1.54-1.46-2.19-2.34l-5.02-6.74c-.84-1.12-1.69-2.19-3.07-2.77,1.23,2.79,2.99,5.08,4.83,7.44,2.27,2.91,4.51,5.6,7.7,8.04.65-3.11-2-5.78,1.31-8.84,4.23,9.27-2.63,9.9.22,13ZM1124.86,170.93c1.33.48,3.18,4.42,6.17,6.12,3.56,2.02,7.8,2.01,10.76-.92v-31c-4.26,1.1-8.06-.82-9.45-4.53-.29-.74-.05-1.66.55-2.03.44-.26,1.55-.14,1.88.47.91,1.71,1.99,2.85,3.93,3.44.83.25,2.77.22,3.03-.93v-13c.01-1.43-1.14-2.36-2.26-2.79-1.35-.52-2.64-.52-3.86.22-4.82,2.91-7.33,4.37-11.23,8.43-2.03,2.11-1.15,4.83-3.14,5.74-1.69.77-2.51,2.09-2.66,3.88-.62,7.09-6.47,8.66.22,15.82l-.17,5.46c-.06,1.79.54,3.56,2.28,4.19l3.95,1.42ZM1168.61,169.99c2.41-.39,3.47-2.48,3.39-4.65l-.19-5.26,2.57-3.7c1.99-2.86-1.8-7.61-2.51-13.02-.2-1.52-1.18-2.75-2.52-3.32-2.5-1.06-.85-3.31-2.8-5.3-1.02-1.04-1.92-2.07-3-2.95-2.74-2.24-5.64-4.07-8.65-5.93-.86-.53-2.07-.4-2.93-.23-3.73.76-3.21,4.57-3.2,6.23l.09,10.22c2.14.47,4.7.96,5.77-1.14.6-1.18,1.5-2.1,2.58-2.7,1.26.51,1.43,1.5.99,2.61-1.39,3.58-5.2,5.44-9.35,4.32v31.02c3,2.61,7.31,3,10.81.93,3.23-1.91,4.54-6.41,8.95-7.12ZM1106.65,142.18l-8.89-8.91c-.65-.65-1.43-1.55-2.33-1.88-.53-.2-1.46.91-1.41,1.43.17,1.9,2.49,1.41,4.22,2.75,3.72,2.91,5.57,7.91,8.41,6.61ZM1184.5,142.82c5.33-2.21,5.16-7.45,11.08-8.51.5-.09.93-1.14.95-1.68.01-.44-.47-1.17-.83-1.25-.3-.07-.99.13-1.24.38l-5.65,5.62c-1.17,1.16-2.15,2.54-3.51,3.48-.38.26-.81.57-1.07.8-.23.2.05,1.01.26,1.17ZM1194.48,143.84l2.93-2.18c.62-.46.83-1.23.5-1.82-.21-.38-1.28-.86-1.59-.46l-2.9,3.7c-.42.53-1.42,1.3-2.07,1.42l-5.65,1.05c4.81,1.69,5.56.68,8.79-1.72ZM1096.8,142.56l-1.65-2.26c-.28-.38-.76-.89-1.12-.91-.31-.01-1.13.35-1.31.6-.5.69.48,1.73,1.12,2.18l4.96,3.47c1.71,1.19,4.32.97,6.04-.12-3.58-1.11-5.66.31-8.04-2.95ZM1097,150.18c3.3-1.36,5.19.35,7.77.65.22-.93-.55-1.53-1.29-1.7l-4.42-1.06-4.82,1.72c-2.78.99-3.82-.48-4.35.58-.35.69-.41,1.85.03,2.26.17.16.8.14,1.04.05l6.05-2.49ZM1095.68,158.35c2.81-3.46,5.19-2.71,8.27-3.84-2.36-1.33-5.04-.65-6.99,1.09-2.22,1.97-4.35,3.72-6.83,5.55-.44.32-.06,1.49.41,1.75.38.21,1.37.09,1.66-.28l3.48-4.28ZM1198.38,162.57c.32.43,1.82.28,2.18-.14.25-.29.1-1.27-.25-1.51-2.41-1.66-4.73-3.68-6.92-5.59-1.9-1.65-4.53-2.05-6.78-.74l4.06.88c2.98.65,5.78,4.49,7.71,7.1ZM1197.52,171.7c.68.09,1.27-.73,1.46-1.26.26-.75-.81-.92-1.18-1.41l-5.19-6.87c-1.91-1.16-3.86-2.12-5.9-2.86.64,3.48,4.06,1.74,6.75,5.98l4.07,6.41ZM1098.62,163.58c1.12-1.26,5.42-1.89,5.34-4.15-3.56,1.27-6.63,2.81-8.45,6.14-1.64,3.01-4.14,4.33-3.81,5.2.11.29.67.67.98.75,1.2.3,3.19-4.84,5.94-7.94ZM1194.64,178.37c.58.02,1.65-.87,1.71-1.4.08-.84-1.05-1.62-1.66-2.1l-1.96-7.17c-1.89-2.33-3.86-4.36-6.32-6.25.33,3.6,3.86,4.1,4.88,6.47,2.07,4.79,1.45,10.4,3.36,10.45ZM1097.02,177.54l1.55-7.23c1.16-5.39,5.58-4.94,5.63-8.72-2.36,1.69-4.63,3.73-6.11,6.22-1.29,2.18-.93,5.04-2.37,7.21-.24.36-1.18.76-1.27,1.18-.24,1.1.92,2.55,1.7,2.4.29-.05.79-.7.86-1.05ZM1104.04,181.74c-.32.68-.62,1.5-.76,2.14,3.2,4.12-3.47,6.24-1.08,7.66.63.37,1.79.55,2.03-.28.53-1.84,1.33-3.88,1.09-5.73-.22-1.67-.93-3.14.49-4.53l2.49-2.42c.39,1.01.68,1.95.52,2.96l-.86,5.5c-.04.29.71.77.97.67,1.54-.6,1.27-2.86,1.34-4.76.1-2.56-.51-4.64-2.4-6.44s-2.63-7.65-3.24-10.28l1-1.55c.15-.23-.11-.95-.36-1.03s-.77.31-.91.6l-4.37,9.4,1.8,4.75-3.46,3.89c-1.71.07-3.42.1-4.93.44-.5.11-.49,1.62-.03,1.75,2.12.57,3.88-1.43,4.31-.46.48,1.08-1.4,2.27-.88,4.13.14.51,1.88.5,2-.01.71-6.3.6-5.02,4.15-8.81,1.6-1.7-4.18-4.75.95-10.06l2.39,8.76-2.25,3.71ZM1184.4,177.97l2.44-8.67c1.03,1.17,2.55,2.94,2.1,4.52l-1.51,5.3c3.25,2.07,4.62,5.47,4.26,8.98.44.65,2.33.64,2.35-.33.02-1.4-1.88-3.52-.96-3.9,1.3-.54,2.32,1.34,4.12.62.41-.16.49-1.26.26-1.59-.84-1.2-4-.01-5.19-.83-1.43-.98-2.42-2.55-3.37-3.83l1.75-4.8-4.11-8.64c-.15-.31-.46-.74-.7-.84-.2-.08-.79.1-.89.19.6,1.26,1.19,2.63.81,3.98l-2.16,7.87-1.68,1.66c-1.53,1.51-1.5,3.33-1.32,5.27.2,2.19-.42,5.03,1.39,4.76.45-.07.77-.85.67-1.35l-.7-3.59c-.27-1.39-.29-2.85.75-4.11,6.02,6.25,1.31,4.89,2.89,9.47.39,1.13.57,2.94,1.52,3.82.31.21,1.08-.19,1.34-.44,2.18-2.15-4.16-2.76-.93-8.09l-3.11-5.44ZM1117.48,198.05c1.59-1.86,3.42-3.68,4.2-5.94,1-2.91.28-6.16-1.43-8.56-.55,3.53.72,3.7.32,8.52-.04.46-1.12,1.43-1.48,1.12-1.06-.95-2.13-1.98-2.94-2.98-2.75-3.41,2.99-5.46-2.4-8.22,1.16,2.82,1.04,4.84-.37,7.13-1.23,1.99-2.38,3.81-3.91,5.75-.35.44.66,1.32,1.23,1.41,1.97.31.97-3.89,3.72-5.93,1.2,1.12,3.39,3.54,3.98,4.69-1.85,2.27-3.78,4.01-5.9,5.86-.15.6,1.39,1.34,1.77.89l3.2-3.74ZM1177.78,201.91l-.02-1.57c-2.3-1.48-3.97-3.39-5.46-5.58l4.01-4.55c.44.47.89,1.1,1.16,1.71l1.82,4.17c.25.57,1.63.14,1.94-.46.7-1.38-1.46-1.97-2.69-4.16s-2.02-4.3-2.8-6.52l1.31-2.8c-1.24.17-2.54,1.22-2.5,2.47s.63,2.59.95,3.88c-.53,1.01-3.44,5.61-4.65,4.64-2.39-1.9.71-7.42-.64-9.87-1.6,4.09-2.75,7.95.1,11.33l4.73,5.61c.69.82,1.25,1.77,2.74,1.68ZM1168.88,196.72l-2.6-5.76c.25-2.56,2.16-5.32.49-7.4-.97,2.81-1.5,5.58-1.63,8.57l6.52,12.25c.79.02,1.67-.64,1.71-1.36-1.79-1.83-3.38-3.85-4.49-6.3ZM1117.44,203.47c.34.45,1.26.85,1.57.65.27-.17.56-.7.77-1.08l3.78-6.9c2.38-4.35,2.48-7.77.11-12.35-.84,2.22.68,5.88.53,7.51-.14,1.47-1.15,2.95-1.76,4.28-1.33,2.89-2.91,5.19-5,7.89ZM1122.72,203.86c-.33.3.25,1.49.64,1.7.34.18,1.27.31,1.61.09l5.56-8.21c-.79-4.21-1.68-8.1-2.94-12.3-1.56,3.39,1.54,8.09,1.55,11.97l-3.79,5.28c-.77.43-1.9.82-2.63,1.48ZM1129.76,207.53c1.37-2.04,2.58-4.09,3.67-6.37,1.99-5.94.77-10.28-.47-16.07-.97,2.85-.32,5.47.03,8.21l.32,2.52c.18,5.5-4.19,7.32-3.54,11.71ZM1157.58,195.17l.36-4.41.29-3.86c.03-.37.06-.89.07-1.16,0-.2-.48-.28-.94-.47-.18.79-.26,1.68-.37,2.68l-.6,5.58c-.2,1.91-.41,3.81.24,5.71,1,2.95,2.55,5.65,4.38,8.27.68-5-4.01-5.15-3.42-12.35ZM1167.69,203.55c-.7-.48-2.14-.77-2.5-1.29l-3.78-5.39,1.72-7.04c.35-1.45.44-2.84.22-4.33-1.66,2.21-2.48,8.91-3.19,11.88l4.83,7.24c.56.84,1.09,1.51,2.13.99.55-.28,1.32-1.55.57-2.06Z"/>
      <path class="cls-53" d="M1075.17,173.38c-.94-1.18-1.05-2.74-1.05-4.16l.02-30.66c0-1.6,1.46-2.79,2.54-3.58l2.52-1.85v-24.13c-1.14-1.48-2.13-2.87-2.9-4.43-1.03-2.08-.17-4.07,1.59-5.33,2.09-1.49,4.6-1.64,6.43,0,3.58,3.21.63,6.81-1.72,9.75l.12,14.32.29,36.55.15,14.42c0,.87-.7,2.19-1.72,2.2-2.4.02-4.74-1.17-6.28-3.1Z"/>
      <path class="cls-41" d="M1208.89,130.44c-.37,4.08,3.18,2.13,4.76,8.15.37,1.43.09,2.71.08,4.17l-.1,25.9c-.01,3.83-4,8.58-8.68,7.42l.11-16.23.21-45.33c0-2.12.36-4.01.16-6.09-1.55-1.47-2.79-3.23-3.04-5.42-.33-2.8,2.24-5.34,4.99-5.25,1.93.06,2.89,1.6,3.91,2.85,3.27,4-1.44,4.38-1.73,8.44l-.3,4.17c-.44,6.14.54,7.09-.02,13.28l-.35,3.93Z"/>
      <path class="cls-56" d="M1157.91,212.35c1.14-.13,4.56-.41,5.18.49.57.84-2.26,4.64-3.87,4.65l-30.11.09c-.76-.53-4.16-3.88-3.6-4.59.88-1.11,2.18-.89,3.3-.8l3.69.28c2.31.18,4.58.03,6.9-.08,4.63-.22,9.24-.21,13.89-.03,1.6.06,3.01.18,4.62,0Z"/>
      <path class="cls-19" d="M1133.98,164.65c.43,0,.63,1.44.36,1.77-.3.37-.98.94-1.49,1.17-2.61,1.18-4.98.17-6.37-2.19-.73-1.23-1.65-2.11-3.22-2.12-.54,0-1.46-.74-1.39-1.24.2-1.48,1.65-1.96,2.9-1.64,2.1.53,3.54,2.03,4.57,3.88.87,1.57,2.79.13,4.65.37Z"/>
      <path class="cls-3" d="M1137.24,161.53l2.89,1.32c.37.17.87.84.83,1.21-.04.42-.77,1.05-1.36,1.16-3,.53-6-2.01-5.85-5.04.07-1.54,1.02-2.89,2.28-3.58,1.14-.63,3.02-.46,3.37.97.27,1.11-2.02,1.54-2.59,2.43-.2.31.09,1.39.43,1.55Z"/>
      <path class="cls-5" d="M1136.05,149.93c1.12,1.15-.45,2.86-1.6,3.41-1.73.83-4.03.91-5.64-.31-1.47-1.11-3.06-4.25-1.8-5.82.21-.26,1.24-.44,1.44-.13l2.07,3.11c.28.42.69.9,1.02.92,1.16.09,3.43-2.29,4.51-1.19Z"/>
      <path class="cls-65" d="M1129.24,157.83c-1.15,1.27-4.92.16-6.23-.98-1.67-1.46-2.32-3.89-2.02-6.05.17-.46,1.44-.82,1.86-.55,1.24.77,1.1,2.63,1.76,3.63.96,1.45,3.45,1.58,4.81,2.49.3.24.07,1.18-.18,1.46Z"/>
      <path class="cls-24" d="M1137.46,135.82c-5.92-3.69-6.2,4.29-9.68.64,1.19-2.45,3.55-4.42,6.35-4.65,1.9-.16,3.74.2,4.51,2.08.23.57-.52,1.58-1.17,1.94Z"/>
      <path class="cls-69" d="M1126.49,144.07l-2.78,2.77c-.48,0-1.39-.42-1.54-.84-.56-1.48,1.15-4.66,3.57-4.93,1.85-.21,3.38.84,4.58,2.13.55.6.74,2.39-.38,2.4s-2.15-.77-3.45-1.53Z"/>
      <path class="cls-25" d="M1138.16,170.86c-.24,1.01-.79,1.95-1.45,2.17-.81.27-2.34.17-2.65-.53-.64-1.45.75-2.65,2.03-3.05.41-.12,1.1-.14,1.42-.03.37.13.74,1.02.64,1.43Z"/>
      <path class="cls-31" d="M1157.62,167.46c-1.27-.63-1.76-1.34-1.36-2.72l4.36.22c.43-.47,1.04-1.26,1.46-1.85,1.69-2.35,4.96-4,6.35-1.97.28.41.05,1.73-.46,1.82-2.47.43-3.57,1.91-4.79,3.8-1.12,1.73-3.88,1.54-5.57.7Z"/>
      <path class="cls-44" d="M1150.17,164.75c-.23-.21-.47-.96-.41-1.21.25-1.13,3.58-.66,3.91-3.23l-2.52-2.7c-.78-.84,2.47-2.1,4.42-.53.77.62,1.14,1.81,1.21,2.91.16,2.52-1.05,4.39-3.48,5.08-.95.27-2.3.44-3.13-.32Z"/>
      <path class="cls-73" d="M1154.75,152.11c-.37-.42-.61-1.04-.61-1.37s.6-1.05.96-1.03c2.68.2,3.85,2.69,5.15.43l1.86-3.24c.56.07,1.27.29,1.57.55,1.17,1.02-.4,4.51-1.84,5.61-2.17,1.66-5.32,1.07-7.09-.96Z"/>
      <path class="cls-62" d="M1161.76,137.37c-2.66.08-4.21-3.46-6.35-2.63-.9.35-2.66,1.39-3.3.3-.75-1.76,1.46-3.16,3.16-3.31,3.74-.34,7.3,3.27,7.39,4.37.03.37-.53,1.26-.9,1.27Z"/>
      <path class="cls-55" d="M1162.81,158.4c-1.14.06-2.29-1.03-1.69-1.93.97-1.46,5.15-.04,5.66-4.69.05-.47.55-1.23.92-1.46.41-.26,1.86,0,1.92.51.22,1.71-.23,3.91-1.31,5.3-1.26,1.61-3.39,2.17-5.5,2.28Z"/>
      <path class="cls-61" d="M1165.33,145.2c-.81-2.41-2.84.49-4.76.49-1.2-.5-.87-1.98-.15-2.67,1.34-1.3,3.22-2.42,5.25-1.81,1.79.53,3.74,4.09,2.58,5.13-.84.75-2.51.12-2.93-1.13Z"/>
      <path class="cls-37" d="M1152.85,169.58c1.4-1.17,4.11,1.42,3.85,2.52-.13.58-.74,1.11-1.33,1.11-1.1,0-2-.25-2.52-1.04-.47-.7-.85-1.87,0-2.59Z"/>
    </g>
  </g>

</svg>
